<svg width="24" height="24" viewBox="0 0 24 24" fill="none" xmlns="http://www.w3.org/2000/svg">
  <path d="M12 14c1.66 0 3-1.34 3-3V5c0-1.66-1.34-3-3-3S9 3.34 9 5v6c0 1.66 1.34 3 3 3z" fill="currentColor" fill-opacity="0.18"/>
  <path d="M12 14c1.66 0 3-1.34 3-3V5c0-1.66-1.34-3-3-3S9 3.34 9 5v6c0 1.66 1.34 3 3 3z" stroke="currentColor" stroke-width="1.5" stroke-linecap="round" stroke-linejoin="round" fill="none"/>
  <path d="M17 11c0 2.76-2.24 5-5 5s-5-2.24-5-5M12 16v5m-3 0h6" stroke="currentColor" stroke-width="1.5" stroke-linecap="round" stroke-linejoin="round" fill="none"/>
</svg>
