<svg xmlns="http://www.w3.org/2000/svg" viewBox="0 0 128 128" role="img" aria-labelledby="title desc">
  <title>Slide AI</title>
  <desc>Conversation bubble over a slide frame</desc>
  <defs>
    <linearGradient id="g" x1="0%" y1="0%" x2="100%" y2="100%">
      <stop offset="0%" stop-color="#2d7cff"/>
      <stop offset="100%" stop-color="#7bf2c4"/>
    </linearGradient>
  </defs>
  <rect x="14" y="18" width="100" height="80" rx="12" fill="#0b1224"/>
  <rect x="20" y="24" width="88" height="68" rx="10" fill="#0f1a33"/>
  <rect x="26" y="32" width="76" height="52" rx="8" fill="url(#g)"/>
  <path d="M50 46c0-4.4 4.2-8 9.3-8H98v28.5c0 6.1-5.9 11.1-12.9 11.1H72l-8.4 8.4c-1 1-2.6.3-2.6-1.1v-7.3C53 73.1 50 69.9 50 65.5V46Z" fill="#0b1224" opacity="0.9"/>
  <circle cx="64" cy="54" r="3.5" fill="#0f1a33"/>
  <circle cx="78" cy="54" r="3.5" fill="#0f1a33"/>
  <circle cx="92" cy="54" r="3.5" fill="#0f1a33"/>
</svg>
